<svg xmlns="http://www.w3.org/2000/svg" viewBox="0 0 436.6 65.98"><defs><style>.cls-1{fill:#366177;}</style></defs><g id="Layer_2" data-name="Layer 2"><g id="Layer_1-2" data-name="Layer 1"><path class="cls-1" d="M38.94,34.8a17,17,0,0,1,4.66,5.77,16.8,16.8,0,0,1-.79,16.24A17.11,17.11,0,0,1,35.5,63a26.09,26.09,0,0,1-11.31,2.28H0V.46H23.26A26.26,26.26,0,0,1,34.52,2.65a16,16,0,0,1,7,5.91,15.48,15.48,0,0,1,2.33,8.38,14.44,14.44,0,0,1-3.12,9.53,17.43,17.43,0,0,1-8.23,5.45A13.67,13.67,0,0,1,38.94,34.8ZM8.47,28.47H22.71c4,0,7-.93,9.21-2.79A9.62,9.62,0,0,0,35.17,18a9.62,9.62,0,0,0-3.25-7.72q-3.26-2.81-9.4-2.8h-14Zm24.84,26.9a10.25,10.25,0,0,0,3.54-8.28,10.53,10.53,0,0,0-3.72-8.52q-3.72-3.12-10-3.12H8.47V58.34h15Q29.78,58.34,33.31,55.37Z"/><path class="cls-1" d="M61.6.46v41q0,8.66,4.24,12.84t11.77,4.19q7.44,0,11.68-4.19T93.52,41.5V.46H102V41.41A26.47,26.47,0,0,1,98.73,55a20.46,20.46,0,0,1-8.79,8.24A28,28,0,0,1,77.51,66a28,28,0,0,1-12.42-2.7A20.2,20.2,0,0,1,56.34,55a26.77,26.77,0,0,1-3.21-13.63V.46Z"/><path class="cls-1" d="M120.88.46V65.32h-8.47V.46Z"/><path class="cls-1" d="M141.9,58.44h22.71v6.88H133.44V.46h8.46Z"/><path class="cls-1" d="M212.21,4.42a27.88,27.88,0,0,1,11.91,11.31A34.68,34.68,0,0,1,228.26,33a34.46,34.46,0,0,1-4.14,17.27,27.32,27.32,0,0,1-11.91,11.16,40.79,40.79,0,0,1-18.38,3.86h-20.2V.46h20.2A40,40,0,0,1,212.21,4.42ZM213,51.69Q219.6,45,219.6,33T213,14.14q-6.66-6.78-19.12-6.79H182.1v51h11.73Q206.39,58.34,213,51.69Z"/><path class="cls-1" d="M273.11,53.78H248.73l-3.91,11.54H228.16L251.8,0h18.42l23.64,65.32H277ZM269,41.5l-8.09-23.91-8,23.91Z"/><path class="cls-1" d="M381.61,0l-17,65.32H345.32l-10.42-43-10.8,43H304.84L288.28,0h17l9.39,47.55L326.34,0h17.49L355,47.55,364.49,0Z"/><path class="cls-1" d="M436.6,0V12.75H419.29V65.32H403.38V12.75h-17.3V0Z"/></g></g></svg>